<svg xmlns="http://www.w3.org/2000/svg" viewBox="0 0 230 75" fill="none">
  <defs>
    <linearGradient id="shieldGrad" x1="0%" y1="0%" x2="100%" y2="100%">
      <stop offset="0%" style="stop-color:#E0001F"/>
      <stop offset="100%" style="stop-color:#9A0015"/>
    </linearGradient>
  </defs>
  <!-- Shield body -->
  <path d="M16,4 L84,4 C86.2,4 88,5.8 88,8 L88,44 C88,58 52,72 52,72 C52,72 16,58 16,44 L16,8 C16,5.8 17.8,4 20,4 Z" fill="url(#shieldGrad)"/>
  <!-- Inner shield highlight -->
  <path d="M22,10 L78,10 L78,43 C78,54 52,66 52,66 C52,66 22,54 22,43 Z" fill="none" stroke="rgba(255,255,255,0.15)" stroke-width="1"/>
  <!-- V letter -->
  <text x="52" y="36" text-anchor="middle" fill="white" font-family="'Arial Black','Arial',sans-serif" font-size="19" font-weight="900" letter-spacing="-1">V</text>
  <!-- S letter -->
  <text x="52" y="58" text-anchor="middle" fill="white" font-family="'Arial Black','Arial',sans-serif" font-size="19" font-weight="900" letter-spacing="-1">S</text>
  <!-- VISION text -->
  <text x="100" y="34" fill="#C8001F" font-family="'Arial Black','Arial',sans-serif" font-size="20" font-weight="900" font-style="italic">VISION</text>
  <!-- SOLUTION text -->
  <text x="101" y="56" fill="#C8001F" font-family="'Arial',sans-serif" font-size="13" font-weight="600" letter-spacing="3.5">SOLUTION</text>
</svg>