<svg xmlns="http://www.w3.org/2000/svg" viewBox="0 0 800 300" width="800" height="300" font-family="Arial, 'Malgun Gothic', sans-serif">
  <rect width="800" height="300" fill="#ffffff"/>
  <text x="40" y="44" font-size="20" font-weight="800" fill="#1f2937">무료 AI 이미지 도구 3가지 비교 (2026년 6월)</text>

  <!-- Column headers -->
  <rect x="40" y="62" width="220" height="44" rx="8" fill="#0f766e"/>
  <text x="150" y="80" text-anchor="middle" font-size="16" font-weight="800" fill="white">Canva</text>
  <text x="150" y="98" text-anchor="middle" font-size="12" fill="white" opacity="0.9">Magic Media</text>

  <rect x="290" y="62" width="220" height="44" rx="8" fill="#0f766e"/>
  <text x="400" y="80" text-anchor="middle" font-size="16" font-weight="800" fill="white">Leonardo AI</text>
  <text x="400" y="98" text-anchor="middle" font-size="12" fill="white" opacity="0.9">app.leonardo.ai</text>

  <rect x="540" y="62" width="220" height="44" rx="8" fill="#06b6d4"/>
  <text x="650" y="80" text-anchor="middle" font-size="16" font-weight="800" fill="white">Microsoft Copilot</text>
  <text x="650" y="98" text-anchor="middle" font-size="12" fill="white" opacity="0.9">copilot.microsoft.com</text>

  <!-- Row 1: Free limit -->
  <rect x="40" y="118" width="730" height="36" rx="0" fill="#f0fdfa"/>
  <text x="55" y="141" font-size="13" font-weight="700" fill="#6b7280">무료 한도</text>
  <text x="150" y="141" text-anchor="middle" font-size="14" font-weight="800" fill="#0f766e">월 50회</text>
  <text x="400" y="141" text-anchor="middle" font-size="14" font-weight="800" fill="#0f766e">매일 150토큰</text>
  <text x="650" y="141" text-anchor="middle" font-size="14" font-weight="800" fill="#0691b5">월 15크레딧</text>

  <!-- Row 2: Watermark -->
  <rect x="40" y="154" width="730" height="36" rx="0" fill="#ffffff"/>
  <text x="55" y="177" font-size="13" font-weight="700" fill="#6b7280">워터마크</text>
  <text x="150" y="177" text-anchor="middle" font-size="13" fill="#16a34a">없음 ✓</text>
  <text x="400" y="177" text-anchor="middle" font-size="13" fill="#dc2626">있음</text>
  <text x="650" y="177" text-anchor="middle" font-size="13" fill="#16a34a">없음 ✓</text>

  <!-- Row 3: Best for -->
  <rect x="40" y="190" width="730" height="36" rx="0" fill="#f0fdfa"/>
  <text x="55" y="213" font-size="13" font-weight="700" fill="#6b7280">추천 용도</text>
  <text x="150" y="213" text-anchor="middle" font-size="12" fill="#1f2937">디자인 편집 통합</text>
  <text x="400" y="213" text-anchor="middle" font-size="12" fill="#1f2937">사실적 이미지 대량</text>
  <text x="650" y="213" text-anchor="middle" font-size="12" fill="#1f2937">빠른 시작</text>

  <!-- Row 4: Korean support -->
  <rect x="40" y="226" width="730" height="36" rx="0" fill="#ffffff"/>
  <text x="55" y="249" font-size="13" font-weight="700" fill="#6b7280">한국어 프롬프트</text>
  <text x="150" y="249" text-anchor="middle" font-size="13" fill="#16a34a">지원 ✓</text>
  <text x="400" y="249" text-anchor="middle" font-size="13" fill="#dc2626">영어 권장</text>
  <text x="650" y="249" text-anchor="middle" font-size="13" fill="#16a34a">지원 ✓</text>

  <!-- Source note -->
  <text x="40" y="285" font-size="11" fill="#9ca3af">출처: Canva 도움말, leonardo.ai/pricing, Microsoft Copilot 공식 페이지 (2026년 6월 기준)</text>
</svg>
