<svg xmlns="http://www.w3.org/2000/svg" width="1200" height="630" viewBox="0 0 1200 630">
  <rect width="1200" height="630" fill="#0d0d16"/>
  <!-- Grid lines -->
  <line x1="0" y1="315" x2="1200" y2="315" stroke="#1a1a2e" stroke-width="1"/>
  <line x1="600" y1="0" x2="600" y2="630" stroke="#1a1a2e" stroke-width="1"/>
  <!-- Search trend line (declining) -->
  <polyline points="80,200 250,210 420,230 560,300 680,380 820,420 1000,450" fill="none" stroke="#ff4444" stroke-width="3" stroke-dasharray="8,4" opacity="0.6"/>
  <!-- Search trend line (optimized - rising) -->
  <polyline points="80,400 250,380 420,340 560,280 680,220 820,180 1000,150" fill="none" stroke="#00d4aa" stroke-width="3" opacity="0.8"/>
  <!-- Google G icon simplified -->
  <circle cx="180" cy="120" r="55" fill="none" stroke="#4285f4" stroke-width="4" opacity="0.7"/>
  <path d="M205 120 L235 120 L235 145 Q220 160 195 160 Q160 160 140 135 Q125 115 135 88 Q148 62 178 62 Q200 62 215 78" fill="none" stroke="#4285f4" stroke-width="4" opacity="0.7"/>
  <!-- Main title -->
  <text x="600" y="220" font-family="'Noto Sans KR', Arial, sans-serif" font-size="52" font-weight="bold" fill="#ffffff" text-anchor="middle">구글 5월 코어 업데이트</text>
  <text x="600" y="290" font-family="'Noto Sans KR', Arial, sans-serif" font-size="44" font-weight="bold" fill="#00d4aa" text-anchor="middle">중소기업 SEO 지금 점검하세요</text>
  <!-- Subtitle -->
  <text x="600" y="360" font-family="'Noto Sans KR', Arial, sans-serif" font-size="26" fill="#aaaacc" text-anchor="middle">2026년 5월 21일 업데이트 시작 · AEO · LLMs.txt 대응 가이드</text>
  <!-- Tag badge -->
  <rect x="440" y="400" width="320" height="50" rx="25" fill="#4285f4" opacity="0.85"/>
  <text x="600" y="432" font-family="'Noto Sans KR', Arial, sans-serif" font-size="22" font-weight="bold" fill="#ffffff" text-anchor="middle">Vision Solution 홈페이지 제작</text>
  <!-- Bottom brand -->
  <text x="600" y="590" font-family="Arial, sans-serif" font-size="20" fill="#555577" text-anchor="middle">visionc.co.kr</text>
</svg>
