<svg xmlns="http://www.w3.org/2000/svg" viewBox="0 0 800 280" width="800" height="280" font-family="Arial, 'Malgun Gothic', sans-serif">
  <rect width="800" height="280" fill="#ffffff"/>
  <!-- 제목 -->
  <text x="40" y="44" font-size="18" font-weight="800" fill="#1f2937">VibeVoice 모델 3종 비교</text>
  <!-- 구분선 -->
  <line x1="40" y1="58" x2="760" y2="58" stroke="#e5e7eb" stroke-width="1"/>

  <!-- 카드 1: VibeVoice-1.5B -->
  <rect x="40" y="72" width="220" height="180" rx="12" fill="#f0fdfa" stroke="#0f766e" stroke-width="1.5"/>
  <rect x="40" y="72" width="220" height="42" rx="12" fill="#0f766e"/>
  <rect x="40" y="102" width="220" height="12" fill="#0f766e"/>
  <text x="150" y="99" text-anchor="middle" font-size="13" font-weight="700" fill="white">VibeVoice-1.5B</text>
  <text x="150" y="140" text-anchor="middle" font-size="22" fill="#0f766e">🎧</text>
  <text x="150" y="168" text-anchor="middle" font-size="13" font-weight="700" fill="#1f2937">긴 음성 생성</text>
  <text x="150" y="190" text-anchor="middle" font-size="12" fill="#6b7280">최대 90분 · 화자 4명</text>
  <text x="150" y="210" text-anchor="middle" font-size="12" fill="#6b7280">감정 표현 · 한국어 지원</text>
  <rect x="70" y="226" width="160" height="14" rx="7" fill="#ccfbf1"/>
  <text x="150" y="237" text-anchor="middle" font-size="11" fill="#0f766e" font-weight="600">GPU 7GB VRAM 권장</text>

  <!-- 카드 2: Realtime-0.5B -->
  <rect x="290" y="72" width="220" height="180" rx="12" fill="#f0f9ff" stroke="#0369a1" stroke-width="1.5"/>
  <rect x="290" y="72" width="220" height="42" rx="12" fill="#0369a1"/>
  <rect x="290" y="102" width="220" height="12" fill="#0369a1"/>
  <text x="400" y="99" text-anchor="middle" font-size="13" font-weight="700" fill="white">VibeVoice-Realtime-0.5B</text>
  <text x="400" y="140" text-anchor="middle" font-size="22" fill="#0369a1">⚡</text>
  <text x="400" y="168" text-anchor="middle" font-size="13" font-weight="700" fill="#1f2937">실시간 스트리밍</text>
  <text x="400" y="190" text-anchor="middle" font-size="12" fill="#6b7280">지연 300ms · 경량 모델</text>
  <text x="400" y="210" text-anchor="middle" font-size="12" fill="#6b7280">챗봇·실시간 서비스 용도</text>
  <rect x="320" y="226" width="160" height="14" rx="7" fill="#e0f2fe"/>
  <text x="400" y="237" text-anchor="middle" font-size="11" fill="#0369a1" font-weight="600">GPU 4GB VRAM 이상</text>

  <!-- 카드 3: ASR -->
  <rect x="540" y="72" width="220" height="180" rx="12" fill="#faf5ff" stroke="#7c3aed" stroke-width="1.5"/>
  <rect x="540" y="72" width="220" height="42" rx="12" fill="#7c3aed"/>
  <rect x="540" y="102" width="220" height="12" fill="#7c3aed"/>
  <text x="650" y="99" text-anchor="middle" font-size="13" font-weight="700" fill="white">VibeVoice-ASR</text>
  <text x="650" y="140" text-anchor="middle" font-size="22" fill="#7c3aed">📝</text>
  <text x="650" y="168" text-anchor="middle" font-size="13" font-weight="700" fill="#1f2937">음성 → 텍스트 변환</text>
  <text x="650" y="190" text-anchor="middle" font-size="12" fill="#6b7280">60분 오디오 · 화자 구분</text>
  <text x="650" y="210" text-anchor="middle" font-size="12" fill="#6b7280">50개+ 언어 · 타임스탬프</text>
  <rect x="570" y="226" width="160" height="14" rx="7" fill="#ede9fe"/>
  <text x="650" y="237" text-anchor="middle" font-size="11" fill="#7c3aed" font-weight="600">고사양 GPU 권장</text>

  <!-- 출처 -->
  <text x="760" y="272" text-anchor="end" font-size="11" fill="#9ca3af">출처: github.com/microsoft/VibeVoice</text>
</svg>
