<svg xmlns="http://www.w3.org/2000/svg" viewBox="0 0 800 420" width="800" height="420">
  <defs>
    <linearGradient id="bg" x1="0%" y1="0%" x2="100%" y2="100%">
      <stop offset="0%" style="stop-color:#7c3aed;stop-opacity:1" />
      <stop offset="100%" style="stop-color:#a855f7;stop-opacity:1" />
    </linearGradient>
  </defs>
  <rect width="800" height="420" fill="url(#bg)" />
  <circle cx="710" cy="-20" r="230" fill="white" opacity="0.03"/>
  <circle cx="-20" cy="440" r="180" fill="white" opacity="0.03"/>
  <!-- Tag badge -->
  <rect x="40" y="40" width="110" height="28" rx="14" fill="white" opacity="0.12"/>
  <text x="95" y="59" text-anchor="middle" font-family="Arial, sans-serif" font-size="12" font-weight="700" fill="white">보안 점검</text>
  <!-- Icon panel -->
  <rect x="475" y="55" width="285" height="310" rx="18" fill="white" opacity="0.06" stroke="white" stroke-opacity="0.1" stroke-width="1"/>
  <!-- Shield icon -->
  <text x="617" y="158" text-anchor="middle" font-family="Arial, sans-serif" font-size="62">🛡️</text>
  <!-- Checklist items -->
  <rect x="500" y="210" width="235" height="32" rx="8" fill="white" opacity="0.08"/>
  <text x="617" y="231" text-anchor="middle" font-family="Arial, sans-serif" font-size="12" fill="#e9d5ff">✅ SSL 인증서 확인</text>
  <rect x="500" y="250" width="235" height="32" rx="8" fill="white" opacity="0.08"/>
  <text x="617" y="271" text-anchor="middle" font-family="Arial, sans-serif" font-size="12" fill="#e9d5ff">✅ 관리자 페이지 보호</text>
  <rect x="500" y="290" width="235" height="32" rx="8" fill="white" opacity="0.08"/>
  <text x="617" y="311" text-anchor="middle" font-family="Arial, sans-serif" font-size="12" fill="#e9d5ff">✅ 자동 백업 설정</text>
  <!-- Main text -->
  <text x="40" y="128" font-family="Arial, sans-serif" font-size="14" font-weight="600" fill="white" opacity="0.7">중소기업 보안</text>
  <text x="40" y="175" font-family="Arial, sans-serif" font-size="30" font-weight="900" fill="white">랜섬웨어 피해 70%가</text>
  <text x="40" y="215" font-family="Arial, sans-serif" font-size="30" font-weight="900" fill="white">중소기업 — 보안 점검 5</text>
  <text x="40" y="260" font-family="Arial, sans-serif" font-size="15" fill="white" opacity="0.7">지금 바로 무료로 확인하세요</text>
  <rect x="40" y="290" width="55" height="4" rx="2" fill="#c084fc" opacity="0.8"/>
  <!-- Footer -->
  <text x="40" y="360" font-family="Arial, sans-serif" font-size="13" fill="white" opacity="0.5">visionc.co.kr</text>
</svg>
