<svg xmlns="http://www.w3.org/2000/svg" viewBox="0 0 800 420" width="800" height="420">
  <defs>
    <linearGradient id="bg" x1="0%" y1="0%" x2="100%" y2="100%">
      <stop offset="0%" style="stop-color:#1c0a00;stop-opacity:1" />
      <stop offset="100%" style="stop-color:#7f1d1d;stop-opacity:1" />
    </linearGradient>
  </defs>
  <rect width="800" height="420" fill="url(#bg)" />
  <circle cx="710" cy="-20" r="230" fill="white" opacity="0.03"/>
  <circle cx="-20" cy="440" r="180" fill="white" opacity="0.03"/>
  <!-- Warning badge -->
  <rect x="40" y="40" width="130" height="28" rx="14" fill="white" opacity="0.12"/>
  <text x="105" y="59" text-anchor="middle" font-family="Arial, sans-serif" font-size="12" font-weight="700" fill="white">2026 보안 트렌드</text>
  <!-- Icon panel -->
  <rect x="475" y="55" width="285" height="310" rx="18" fill="white" opacity="0.06" stroke="white" stroke-opacity="0.1" stroke-width="1"/>
  <!-- Shield icon -->
  <text x="617" y="158" text-anchor="middle" font-family="Arial, sans-serif" font-size="62">🛡️</text>
  <!-- Attack items -->
  <rect x="500" y="210" width="235" height="32" rx="8" fill="white" opacity="0.08"/>
  <text x="617" y="231" text-anchor="middle" font-family="Arial, sans-serif" font-size="12" fill="#fca5a5">🤖 AI 스캐닝 Bot 공격</text>
  <rect x="500" y="250" width="235" height="32" rx="8" fill="white" opacity="0.08"/>
  <text x="617" y="271" text-anchor="middle" font-family="Arial, sans-serif" font-size="12" fill="#fca5a5">📧 딥피싱 이메일</text>
  <rect x="500" y="290" width="235" height="32" rx="8" fill="white" opacity="0.08"/>
  <text x="617" y="311" text-anchor="middle" font-family="Arial, sans-serif" font-size="12" fill="#fca5a5">🔑 자동화 Credential 탈취</text>
  <!-- Main text -->
  <text x="40" y="128" font-family="Arial, sans-serif" font-size="14" font-weight="600" fill="white" opacity="0.7">중소기업 웹보안</text>
  <text x="40" y="175" font-family="Arial, sans-serif" font-size="30" font-weight="900" fill="white">AI 자동화 공격</text>
  <text x="40" y="215" font-family="Arial, sans-serif" font-size="30" font-weight="900" fill="white">대응 체크리스트</text>
  <text x="40" y="260" font-family="Arial, sans-serif" font-size="15" fill="white" opacity="0.7">2026년 최신 위협 트렌드 분석</text>
  <rect x="40" y="290" width="55" height="4" rx="2" fill="#f87171" opacity="0.8"/>
  <text x="40" y="340" font-family="Arial, sans-serif" font-size="13" fill="white" opacity="0.55">비전솔루션</text>
</svg>
